<svg width="25" height="23" viewBox="0 0 25 23" fill="none" xmlns="http://www.w3.org/2000/svg">
<path d="M20.4268 11V21H4.42682V11" stroke="#666666" stroke-width="2" stroke-linecap="round" stroke-linejoin="round"/>
<path d="M22.4268 6H2.42682V11H22.4268V6Z" stroke="#666666" stroke-width="2" stroke-linecap="round" stroke-linejoin="round"/>
<path d="M12.4268 21V6" stroke="#666666" stroke-width="2" stroke-linecap="round" stroke-linejoin="round"/>
<path d="M12.4268 6H7.92682C7.26378 6 6.62789 5.73661 6.15905 5.26777C5.69021 4.79893 5.42682 4.16304 5.42682 3.5C5.42682 2.83696 5.69021 2.20107 6.15905 1.73223C6.62789 1.26339 7.26378 1 7.92682 1C11.4268 1 12.4268 6 12.4268 6Z" stroke="#666666" stroke-width="2" stroke-linecap="round" stroke-linejoin="round"/>
<path d="M12.4268 6H16.9268C17.5899 6 18.2257 5.73661 18.6946 5.26777C19.1634 4.79893 19.4268 4.16304 19.4268 3.5C19.4268 2.83696 19.1634 2.20107 18.6946 1.73223C18.2257 1.26339 17.5899 1 16.9268 1C13.4268 1 12.4268 6 12.4268 6Z" stroke="#666666" stroke-width="2" stroke-linecap="round" stroke-linejoin="round"/>
</svg>
