<svg width="24" height="24" viewBox="0 0 24 24" fill="none" xmlns="http://www.w3.org/2000/svg">
<path d="M4.425 17.575C3.975 17.2083 3.625 16.7833 3.375 16.3C3.125 15.8 3 15.2667 3 14.7V7.05C3 6.28333 3.175 5.59167 3.525 4.975C3.875 4.35833 4.35833 3.875 4.975 3.525C5.59167 3.175 6.28333 3 7.05 3H16.95C17.7167 3 18.4083 3.175 19.025 3.525C19.6417 3.875 20.125 4.35833 20.475 4.975C20.825 5.59167 21 6.28333 21 7.05V14.7C21 15.2667 20.875 15.8 20.625 16.3C20.375 16.7833 20.025 17.2083 19.575 17.575L14.3 21.525C13.6167 22.0417 12.85 22.3 12 22.3C11.15 22.3 10.3833 22.0417 9.7 21.525L4.425 17.575ZM10.9 19.925C11.2833 20.2083 11.65 20.35 12 20.35C12.35 20.35 12.7167 20.2083 13.1 19.925L18.375 15.975C18.6083 15.7917 18.7667 15.6083 18.85 15.425C18.95 15.225 19 14.9833 19 14.7V7.05C19 6.6 18.925 6.225 18.775 5.925C18.625 5.60833 18.3917 5.375 18.075 5.225C17.775 5.075 17.4 5 16.95 5H7.05C6.6 5 6.21667 5.075 5.9 5.225C5.6 5.375 5.375 5.60833 5.225 5.925C5.075 6.225 5 6.6 5 7.05V14.7C5 14.9833 5.05 15.225 5.15 15.425C5.25 15.6083 5.40833 15.7917 5.625 15.975L10.9 19.925ZM11 7.5C11 7.08333 11.1667 6.8 11.5 6.65C11.8333 6.48333 12.1667 6.48333 12.5 6.65C12.8333 6.8 13 7.08333 13 7.5V11C13 11.4167 12.8333 11.7083 12.5 11.875C12.1667 12.025 11.8333 12.025 11.5 11.875C11.1667 11.7083 11 11.4167 11 11V7.5ZM13.5 14C13.5 14.4167 13.35 14.775 13.05 15.075C12.7667 15.3583 12.4167 15.5 12 15.5C11.5833 15.5 11.225 15.3583 10.925 15.075C10.6417 14.775 10.5 14.4167 10.5 14C10.5 13.5833 10.6417 13.2333 10.925 12.95C11.225 12.65 11.5833 12.5 12 12.5C12.4167 12.5 12.7667 12.65 13.05 12.95C13.35 13.2333 13.5 13.5833 13.5 14Z" fill="#AB78FF"/>
</svg>
