<svg width="17" height="13" viewBox="0 0 17 13" fill="none" xmlns="http://www.w3.org/2000/svg">
<path id="Wifi" fill-rule="evenodd" clip-rule="evenodd" d="M8.80201 3.12663C11.1752 3.12673 13.4576 4.01466 15.1776 5.6069C15.3071 5.72983 15.5141 5.72828 15.6417 5.60342L16.8798 4.38675C16.9443 4.32343 16.9804 4.23765 16.9798 4.1484C16.9793 4.05915 16.9422 3.97379 16.8769 3.91121C12.3626 -0.301482 5.24072 -0.301482 0.726398 3.91121C0.661005 3.97375 0.623901 4.05908 0.623298 4.14833C0.622695 4.23758 0.658642 4.32338 0.723185 4.38675L1.9616 5.60342C2.08908 5.72847 2.29626 5.73002 2.4257 5.6069C4.14587 4.01456 6.42858 3.12662 8.80201 3.12663ZM8.80137 7.19287C10.0965 7.19279 11.3455 7.68557 12.3055 8.57547C12.4353 8.70177 12.6399 8.69903 12.7665 8.5693L13.9948 7.29886C14.0595 7.23222 14.0954 7.14182 14.0944 7.04788C14.0935 6.95394 14.0558 6.86431 13.9898 6.79903C11.0663 4.01525 6.5389 4.01525 3.6154 6.79903C3.54936 6.86431 3.51169 6.95399 3.51082 7.04796C3.50995 7.14192 3.54597 7.23232 3.61079 7.29886L4.83876 8.5693C4.96534 8.69903 5.16988 8.70177 5.29973 8.57547C6.25913 7.68616 7.50708 7.19342 8.80137 7.19287ZM11.2074 9.87749C11.2092 9.97894 11.1738 10.0767 11.1096 10.1478L9.03266 12.5116C8.97177 12.5811 8.88876 12.6202 8.80215 12.6202C8.71554 12.6202 8.63253 12.5811 8.57165 12.5116L6.49434 10.1478C6.43017 10.0767 6.39487 9.97886 6.39677 9.87741C6.39867 9.77596 6.43761 9.67989 6.50439 9.61189C7.83082 8.34666 9.77349 8.34666 11.0999 9.61189C11.1666 9.67995 11.2055 9.77604 11.2074 9.87749Z" fill="#2C2C2C"/>
</svg>
